<?xml version="1.0" encoding="UTF-8"?>
<svg viewBox="0 0 167.83 55.332" xmlns="http://www.w3.org/2000/svg">
 <path d="m2.0002 28.772c-0.087082-8.4109 0.63722-14.117 2.9234-14.617l11.848-1.5386c8.3816-3.8703 17.117-8.6831 24.772-10.617 5.8792-1.1707 12.1-1.8864 18.771-2.0002 13.426 0.2141 28.358-0.70172 37.85 2.4618 9.0415 4.1758 17.949 8.6206 26.464 13.848 11.478 0.7832 34.907 3.9761 38.312 7.6932 1.6978 2.2797 3.0492 4.7325 3.6927 7.5393 1.4878 0.61504 1.3828 2.8229 0.76932 5.5391l-0.1539 5.5391-5.693 2.308-11.232 1.3848-2.9234 0.7693c-4.2378 9.9421-19.974 8.7095-24.31-0.46158l-3.5389 0.6155-63.084-0.6155-0.7693 1.077-4.9236-0.1539c-3.3049 10.149-22.171 11.078-25.08-1.3848h-2.4618l-7.3855-1.0771-11.232-1.5386c-3.0619-1.8169-4.3384-3.1874-4.6159-4.3082l0.7693-1.077-0.6155-6.1545c0.41417-2.0835 0.79405-2.7525 1.8464-3.2311zm68.17-26.369c-6.7709 0.011032-13.391 0.25981-19.348 1.5726l1.3882 11.778 20.91 0.7266c0.85901-0.18173 1.7526-0.32246 1.5834-1.7895l-2.1799-12.288c-0.7876-0.003845-1.569-0.001282-2.3534 0zm-20.346 1.8003c-4.0085 0.97795-7.6988 2.469-10.9 4.7394-1.2685 0.84982-1.7327 1.8577-1.681 2.9716 0.58783 2.5445 2.0893 3.5677 4.2622 3.4705l9.7065 0.3362-1.3882-11.518zm27.261-1.7001l4.4604 12.687c0.56253 0.91772 1.3801 1.6059 2.8744 1.685l21.707 0.8921c-3.0943-2.1074-0.54892-6.0018 2.5771-5.1542-5.8656-4.8846-12.234-7.985-19.13-9.2181-4.0448-0.65187-8.2602-0.79216-12.489-0.89208zm-71.878 12.586c-1.7835 0.63789-2.216 5.1727-2.2885 10.746l5.8207-0.0497c0.22357-1.9486 0.26514-3.8971 0.024872-5.8456-0.57272-3.4087-2.1673-3.8303-3.5571-4.8506zm38.644 5.2202h5.5104c0.43796 0 0.7905 0.35255 0.7905 0.7905 0 0.43794-0.35254 0.79048-0.7905 0.79048h-5.5104c-0.43793 0-0.7905-0.35254-0.7905-0.79048s0.35257-0.7905 0.7905-0.7905zm38.001 0.9091h5.5104c0.43793 0 0.79047 0.35257 0.79047 0.7905s-0.35254 0.79048-0.79047 0.79048h-5.5104c-0.43793 0-0.79047-0.35255-0.79047-0.79048s0.35254-0.7905 0.79047-0.7905zm-34.251 21.216c0 5.0389-4.0895 9.1284-9.1284 9.1284-5.0388 0-9.1284-4.0895-9.1284-9.1284s4.0895-9.1284 9.1284-9.1284 9.1284 4.0895 9.1284 9.1284zm97.44-1.1571c0 5.0389-4.0895 9.1284-9.1284 9.1284s-9.1284-4.0895-9.1284-9.1284 4.0895-9.1284 9.1284-9.1284c5.0388 0 9.1284 4.0895 9.1284 9.1284zm7.6284-11.028l11.794 0.0761c-0.90979-1.9633-2.0836-3.6996-3.906-5.1236l-4.5656 0.3551c-0.83765 0.12651-1.1912 0.49504-1.4965 0.88774l-1.8262 3.8046z" fill= "" fill-rule="evenodd"/>
</svg>
